<svg id="Слой_1" data-name="Слой 1" xmlns="http://www.w3.org/2000/svg" viewBox="0 0 177.53 35.4"><defs><style>.cls-1{fill:#0d148c;}</style></defs><title>IronSource_(2013)</title><path class="cls-1" d="M0,0V35.4H36.4V0ZM12.9,17c0,2.2-.7,3.5-2.3,3.9,1.7.7,2.3,1.9,2.3,4.5v3.8H6.3v-5c0-1-1.1-1.1-2-1.4V19.2c.9-.3,2-.6,2-1.4V12.5h6.6Zm0-5.4H6.2V6.4h6.7ZM22.7,30c-5.9,0-8.8-3.2-8.8-7.2V21.6h6.6v.5a2,2,0,0,0,2,2.2c1.2,0,1.8-.6,1.8-1.5,0-2.6-10.1-2.2-10.1-9.6,0-4,2.5-7.5,8.8-7.5,5.6,0,8.4,3.2,8.4,7.2v1.3H24.8v-.7A1.87,1.87,0,0,0,23,11.4a1.45,1.45,0,0,0-1.6,1.5c0,2.9,10.1,2.2,10.1,9.6C31.5,26.4,28.8,30,22.7,30Z"/><path class="cls-1" d="M43.3,8.4h4.9v3.7H43.3Zm0,5.3h4.9V26.9H43.3Z"/><path class="cls-1" d="M54.6,15.7h0a6.4,6.4,0,0,1,1.9-1.8,5.09,5.09,0,0,1,2.2-.5,1.72,1.72,0,0,1,.8.1v4.2h-.1a4.48,4.48,0,0,0-3.4.6,3.81,3.81,0,0,0-1.2,3.2v5.4H50V13.7h4.7v2Z"/><path class="cls-1" d="M67.3,27.3a9.43,9.43,0,0,1-3-.5A6.13,6.13,0,0,1,62,25.3a10.71,10.71,0,0,1-1.5-2.2,8.68,8.68,0,0,1-.5-2.8,8.68,8.68,0,0,1,.5-2.8A4.82,4.82,0,0,1,62,15.3a7.63,7.63,0,0,1,2.3-1.5,7.29,7.29,0,0,1,3-.5,9.43,9.43,0,0,1,3,.5,7,7,0,0,1,2.3,1.5A6.36,6.36,0,0,1,74,17.5a8.68,8.68,0,0,1,.5,2.8,8.68,8.68,0,0,1-.5,2.8,5.55,5.55,0,0,1-1.4,2.2,7.63,7.63,0,0,1-2.3,1.5A7.29,7.29,0,0,1,67.3,27.3Zm-.1-3.2a1.76,1.76,0,0,0,1.7-1,5.4,5.4,0,0,0,.6-2.7,5.4,5.4,0,0,0-.6-2.7,1.86,1.86,0,0,0-1.7-1,1.76,1.76,0,0,0-1.7,1,5.44,5.44,0,0,0-.5,2.7,6.84,6.84,0,0,0,.5,2.7A2.06,2.06,0,0,0,67.2,24.1Z"/><path class="cls-1" d="M80.4,15.5h0a7.51,7.51,0,0,1,1.9-1.7,4.75,4.75,0,0,1,2.4-.6,4.51,4.51,0,0,1,3.5,1.4,5.49,5.49,0,0,1,1.2,3.7v8.6H84.5V19.5a3.06,3.06,0,0,0-.4-1.7,1.68,1.68,0,0,0-1.4-.6,1.8,1.8,0,0,0-1.5.7,2.73,2.73,0,0,0-.5,1.8v7.1H75.8V13.7h4.7v1.8Z"/><path class="cls-1" d="M98.9,27.4a12.67,12.67,0,0,1-3.4-.4,11.07,11.07,0,0,1-2.7-1.2,4.94,4.94,0,0,1-1.8-2,6.1,6.1,0,0,1-.7-2.8h5.6a2.16,2.16,0,0,0,.9,1.6,3.6,3.6,0,0,0,2.2.5,2.2,2.2,0,0,0,.8-.1,2.61,2.61,0,0,0,.8-.3,2.65,2.65,0,0,0,.6-.5,1.33,1.33,0,0,0,0-1.4,1.79,1.79,0,0,0-.7-.5c-.3-.1-.7-.3-1.1-.4a15.46,15.46,0,0,0-1.5-.4,21.72,21.72,0,0,1-2.4-.7,11.21,11.21,0,0,1-2.2-1,4.89,4.89,0,0,1-1.6-1.6,4.87,4.87,0,0,1-.6-2.5,5.4,5.4,0,0,1,.6-2.7,6.9,6.9,0,0,1,1.6-1.8,5.81,5.81,0,0,1,2.4-1,13.86,13.86,0,0,1,3-.3,12.65,12.65,0,0,1,2.8.3,6.43,6.43,0,0,1,2.4,1,5.88,5.88,0,0,1,1.7,1.8,5.26,5.26,0,0,1,.6,2.6h-5.4a1.85,1.85,0,0,0-.7-1.2,2.65,2.65,0,0,0-1.7-.5,2.41,2.41,0,0,0-1.5.4,1.07,1.07,0,0,0-.6.9.91.91,0,0,0,.3.7,5.58,5.58,0,0,0,.8.5,3.92,3.92,0,0,0,1.4.4c.5.1,1.2.3,1.9.4a20.16,20.16,0,0,1,2.3.7,7.81,7.81,0,0,1,2,1.1,4.57,4.57,0,0,1,1.4,1.7,4.87,4.87,0,0,1,.5,2.5,6,6,0,0,1-.6,2.7,5.19,5.19,0,0,1-1.7,1.9,9.65,9.65,0,0,1-2.5,1.2A17.5,17.5,0,0,1,98.9,27.4Z"/><path class="cls-1" d="M115,27.3a9.43,9.43,0,0,1-3-.5,6.13,6.13,0,0,1-2.3-1.5,10.71,10.71,0,0,1-1.5-2.2,8.68,8.68,0,0,1-.5-2.8,8.68,8.68,0,0,1,.5-2.8,4.82,4.82,0,0,1,1.5-2.2,7.63,7.63,0,0,1,2.3-1.5,7.29,7.29,0,0,1,3-.5,9.43,9.43,0,0,1,3,.5,7,7,0,0,1,2.3,1.5,6.36,6.36,0,0,1,1.4,2.2,8.68,8.68,0,0,1,.5,2.8,8.68,8.68,0,0,1-.5,2.8,5.55,5.55,0,0,1-1.4,2.2,7.63,7.63,0,0,1-2.3,1.5A7.29,7.29,0,0,1,115,27.3Zm-.1-3.2a1.76,1.76,0,0,0,1.7-1,5.4,5.4,0,0,0,.6-2.7,5.4,5.4,0,0,0-.6-2.7,1.86,1.86,0,0,0-1.7-1,1.76,1.76,0,0,0-1.7,1,5.44,5.44,0,0,0-.5,2.7,6.84,6.84,0,0,0,.5,2.7A2.06,2.06,0,0,0,114.9,24.1Z"/><path class="cls-1" d="M132.2,26.9V25.2h-.1a5.48,5.48,0,0,1-1.8,1.6,4.71,4.71,0,0,1-2.4.5,4.64,4.64,0,0,1-2.1-.4,4.37,4.37,0,0,1-2.4-2.7,6.65,6.65,0,0,1-.3-2.1V13.6H128V21q0,2.1,1.8,2.1a2,2,0,0,0,1.5-.6,2.31,2.31,0,0,0,.5-1.7V13.7h4.9V26.9Z"/><path class="cls-1" d="M143.3,15.7h0a6.4,6.4,0,0,1,1.9-1.8,5.09,5.09,0,0,1,2.2-.5,1.72,1.72,0,0,1,.8.1v4.2h-.1a4.48,4.48,0,0,0-3.4.6,3.81,3.81,0,0,0-1.2,3.2v5.4h-4.9V13.7h4.7Z"/><path class="cls-1" d="M156,27.3a9.43,9.43,0,0,1-3-.5,5.13,5.13,0,0,1-2.3-1.5,8.55,8.55,0,0,1-1.5-2.2,8.68,8.68,0,0,1-.5-2.8,8.68,8.68,0,0,1,.5-2.8,4.82,4.82,0,0,1,1.5-2.2,7.63,7.63,0,0,1,2.3-1.5,7.29,7.29,0,0,1,3-.5,7.46,7.46,0,0,1,2.6.4,6.44,6.44,0,0,1,2,1.1,5.79,5.79,0,0,1,1.4,1.7,5.09,5.09,0,0,1,.6,2.1h-4.7a3.67,3.67,0,0,0-.6-1.4,1.66,1.66,0,0,0-1.2-.5,1.76,1.76,0,0,0-1.7,1,5,5,0,0,0-.5,2.6,4.76,4.76,0,0,0,.6,2.6,2,2,0,0,0,1.7.9,1.68,1.68,0,0,0,1.4-.6,3.78,3.78,0,0,0,.6-1.7h4.7a5.6,5.6,0,0,1-1.8,4.1,7.19,7.19,0,0,1-2.1,1.2A9.43,9.43,0,0,1,156,27.3Z"/><path class="cls-1" d="M170.5,27.3a9.43,9.43,0,0,1-3-.5,5.74,5.74,0,0,1-2.3-1.5,8.55,8.55,0,0,1-1.5-2.2,8.68,8.68,0,0,1-.5-2.8,8.68,8.68,0,0,1,.5-2.8,4.82,4.82,0,0,1,1.5-2.2,8.55,8.55,0,0,1,2.2-1.5,6.82,6.82,0,0,1,2.9-.5,7.78,7.78,0,0,1,2.8.5,7.43,7.43,0,0,1,2.1,1.3,6.78,6.78,0,0,1,1.8,2.8,8.76,8.76,0,0,1,.5,3.7H168a3,3,0,0,0,.8,1.8,2.44,2.44,0,0,0,1.8.6,1.73,1.73,0,0,0,1.8-1h4.7a3.15,3.15,0,0,1-.9,1.7,7.68,7.68,0,0,1-1.6,1.5,8.18,8.18,0,0,1-1.9.9A13.79,13.79,0,0,1,170.5,27.3Zm-.1-10.8a2.11,2.11,0,0,0-1.6.6,3.85,3.85,0,0,0-.8,1.7h4.6a3.8,3.8,0,0,0-.7-1.7A1.89,1.89,0,0,0,170.4,16.5Z"/></svg>